<?xml version="1.0" standalone="no"?>
<!DOCTYPE svg PUBLIC "-//W3C//DTD SVG 20010904//EN"
 "http://www.w3.org/TR/2001/REC-SVG-20010904/DTD/svg10.dtd">
<svg version="1.0" xmlns="http://www.w3.org/2000/svg"
 width="1125.000000pt" height="1125.000000pt" viewBox="0 0 1125.000000 1125.000000"
 preserveAspectRatio="xMidYMid meet">
<metadata>
Created by potrace 1.14, written by Peter Selinger 2001-2017
</metadata>
<g transform="translate(0.000000,1125.000000) scale(0.100000,-0.100000)"
fill="#000000" stroke="none">
<path d="M0 8805 c1 -1345 5 -2443 9 -2440 5 2 11 -48 13 -113 3 -88 1 -121
-9 -133 -11 -13 -13 -286 -13 -1517 l0 -1502 23 -4 c12 -3 49 -10 82 -16 243
-45 246 -127 7 -205 l-112 -37 0 -1419 0 -1419 5625 0 5625 0 0 933 0 932
-252 -3 c-139 -2 -293 1 -343 5 l-90 8 0 95 c0 75 11 316 14 328 3 10 366 -21
498 -43 112 -19 125 -27 117 -71 -7 -38 -6 -39 31 -22 31 14 32 22 3 35 l-23
10 23 7 c16 5 22 15 22 36 0 25 -4 30 -32 34 -18 2 -98 14 -178 25 -181 26
-322 41 -392 41 -69 0 -86 10 -70 44 7 16 21 26 39 28 33 4 28 23 -6 23 -15 0
-26 8 -31 20 -4 11 -10 128 -14 260 -3 132 -10 374 -16 539 -5 164 -7 303 -4
308 4 6 34 7 83 3 186 -18 282 -26 329 -25 42 0 42 0 42 -35 0 -41 -15 -45
-53 -15 -14 11 -28 20 -31 20 -7 0 -46 -38 -46 -45 0 -3 25 -5 55 -5 l54 0 -2
-57 c-2 -56 -3 -58 -36 -67 -26 -8 -37 -19 -53 -55 -16 -39 -17 -49 -7 -71 23
-45 1 -130 -32 -130 -14 0 -27 72 -33 183 -3 59 -8 113 -12 119 -21 33 -33
-78 -38 -324 0 -48 -5 -91 -11 -96 -5 -6 -25 -13 -43 -17 -32 -7 -32 -6 -28
27 3 18 -2 44 -10 58 -12 22 -13 1 -11 -175 l2 -200 65 3 c36 2 97 7 135 12
132 18 210 30 227 36 11 3 19 -2 23 -16 8 -26 14 -25 59 5 42 29 56 31 56 10
0 -8 5 -15 10 -15 7 0 10 207 10 600 0 404 -3 600 -10 600 -15 0 -122 -57
-146 -77 -11 -10 -29 -31 -39 -47 l-19 -29 -221 5 c-229 5 -254 10 -276 50
-10 18 -13 206 -8 403 1 17 -2 140 -6 275 l-8 245 23 29 23 28 136 -4 c106 -4
150 -10 201 -27 36 -12 70 -28 75 -35 12 -15 33 -23 103 -42 29 -8 78 -30 108
-49 30 -19 57 -35 59 -35 3 0 5 16 5 35 0 43 -34 85 -68 85 -30 0 -94 38 -86
51 3 5 38 9 79 9 l73 0 1 256 2 256 -78 -6 c-43 -3 -91 -6 -106 -7 -18 -1 -38
7 -56 25 -15 14 -33 26 -40 26 -7 0 -9 5 -6 10 4 6 11 8 16 4 5 -3 21 2 34 10
19 12 25 25 25 51 0 24 5 35 15 35 8 0 15 -9 15 -19 0 -18 56 -71 73 -71 4 0
16 9 28 21 15 15 30 20 50 17 27 -4 29 -2 29 29 l0 34 -79 -6 c-46 -4 -82 -2
-85 3 -9 14 20 23 97 29 l67 6 0 70 c0 67 -1 69 -22 62 -13 -3 -58 -9 -101
-12 -90 -7 -103 -19 -93 -89 6 -45 -2 -55 -24 -29 -15 19 -69 9 -92 -16 -16
-19 -17 -19 -23 2 -4 12 -6 86 -4 163 l4 141 -85 0 -85 0 0 -195 c0 -107 4
-205 8 -217 8 -21 5 -23 -24 -23 -31 0 -31 1 -15 19 15 17 16 35 10 167 -9
195 -15 234 -37 248 -25 15 -50 -18 -43 -59 3 -16 2 -91 -3 -165 -6 -102 -5
-143 5 -167 10 -26 10 -32 -2 -37 -26 -10 -648 -5 -633 5 8 5 48 7 90 3 63 -5
79 -3 92 11 10 10 25 14 36 10 26 -8 34 9 26 51 -5 27 -9 33 -18 25 -19 -15
-33 0 -41 40 -8 46 -23 58 -76 64 -49 5 -70 19 -53 36 8 8 21 8 47 -1 20 -6
44 -9 53 -6 17 7 14 10 -71 83 -17 15 -26 33 -26 53 0 16 -4 30 -10 30 -5 0
-10 -8 -10 -17 0 -9 -9 -26 -20 -38 -14 -15 -21 -37 -22 -73 -2 -43 -8 -57
-30 -79 -22 -21 -31 -24 -40 -15 -17 17 -59 16 -52 -1 2 -7 1 -30 -3 -51 -8
-36 -11 -39 -47 -42 -34 -3 -55 -16 -56 -34 0 -3 15 -5 33 -6 17 0 50 -9 72
-20 l40 -19 -127 -3 c-71 -1 -128 -6 -128 -11 0 -5 18 -21 40 -36 42 -29 55
-53 45 -85 -6 -20 -24 -25 -130 -34 -33 -3 -90 -14 -126 -25 -79 -25 -219 -32
-243 -12 -9 8 -26 11 -40 7 -16 -4 -45 3 -83 20 -49 22 -55 27 -38 34 35 15
96 11 177 -11 88 -24 154 -18 152 14 0 9 -1 35 -2 57 -2 29 -7 42 -19 46 -43
13 -46 20 -47 85 -1 35 2 78 6 94 6 21 4 33 -5 40 -8 6 -22 25 -31 44 -25 48
-33 388 -11 432 19 36 19 79 -1 107 -10 14 -13 30 -8 45 13 39 15 92 20 527 3
271 1 476 -7 565 -6 77 -11 192 -10 255 1 176 18 636 25 657 5 15 23 21 94 32
48 7 107 18 132 25 25 8 97 26 160 40 63 15 131 31 151 37 20 5 45 9 55 9 17
0 17 -1 -1 -13 -32 -22 -145 -67 -166 -67 -10 0 -19 -4 -19 -10 0 -5 -9 -10
-20 -10 -11 0 -20 -4 -20 -8 0 -5 -12 -13 -27 -19 l-28 -12 30 6 c41 7 178 52
310 103 173 66 244 90 325 109 96 23 174 48 228 74 34 16 67 21 178 23 107 3
144 8 177 23 24 11 81 24 127 29 47 6 93 13 102 17 13 5 17 2 15 -15 -1 -17
-6 -21 -24 -17 -31 6 -29 -7 2 -21 22 -10 27 -8 47 18 25 34 38 38 38 12 0
-10 6 -26 13 -36 12 -16 16 -17 35 -5 l22 14 0 1377 0 1378 -5625 0 -5625 0 0
-2445z m5955 1836 c5 -8 -20 -41 -31 -41 -2 0 -4 11 -4 25 0 25 23 35 35 16z
m465 -285 c0 -14 -5 -28 -10 -31 -13 -8 -24 20 -16 40 9 24 26 17 26 -9z m180
-27 c0 -18 -2 -19 -15 -9 -8 7 -15 16 -15 21 0 5 7 9 15 9 9 0 15 -9 15 -21z
m-3042 -63 c2 -10 -1 -23 -6 -28 -12 -12 -36 27 -27 43 10 15 29 5 33 -15z
m3019 -13 c-3 -21 -12 -67 -21 -103 -18 -76 -21 -114 -6 -89 5 8 16 38 26 65
9 27 22 56 29 64 7 8 15 24 17 35 2 15 13 20 46 23 39 3 42 2 42 -21 0 -14
-11 -55 -25 -91 -25 -65 -25 -71 -25 -360 0 -275 1 -294 19 -310 10 -10 25
-16 33 -15 46 6 58 -1 58 -33 0 -18 -4 -39 -9 -47 -14 -22 -41 5 -41 40 0 37
-17 38 -27 2 -9 -38 -9 -169 1 -220 12 -60 0 -113 -24 -113 -11 0 -20 -6 -20
-14 0 -19 -27 -46 -46 -46 -8 0 -14 7 -14 16 0 8 -10 36 -22 62 -26 53 -27
106 -18 604 3 135 2 250 -3 254 -23 23 -27 -39 -27 -444 -1 -368 -3 -432 -16
-432 -8 0 -14 9 -14 19 0 11 -5 21 -11 23 -14 5 -23 875 -9 912 5 14 14 65 20
113 14 119 25 143 62 143 29 0 30 -1 25 -37z m-853 -236 c-46 -90 -84 -169
-84 -175 0 -8 46 -12 147 -14 l148 -3 -210 -190 c-116 -104 -241 -219 -279
-255 -38 -36 -65 -58 -61 -50 5 8 60 93 123 188 63 95 112 175 109 178 -2 2
-68 6 -146 7 -77 1 -141 4 -141 7 0 7 464 470 472 470 4 0 -31 -74 -78 -163z
m403 18 c-4 -25 -15 -60 -24 -78 -10 -17 -21 -41 -24 -52 -13 -38 -9 26 5 91
14 67 22 84 38 84 7 0 9 -16 5 -45z m58 -37 c-15 -49 -17 -79 -5 -92 8 -11 9
-20 0 -36 -19 -36 -29 -12 -24 58 7 80 10 92 25 92 7 0 9 -8 4 -22z m-2865
-23 c0 -8 -4 -15 -10 -15 -5 0 -10 7 -10 15 0 8 5 15 10 15 6 0 10 -7 10 -15z
m7325 -107 c-3 -67 -10 -127 -15 -132 -12 -12 -11 -17 -16 114 -4 116 0 140
22 140 13 0 14 -19 9 -122z m-7020 70 c17 -74 34 -182 29 -189 -11 -18 -32 -8
-42 19 -20 50 -44 163 -38 177 9 24 45 18 51 -7z m175 7 c9 -11 10 -33 4 -82
-8 -58 -12 -68 -29 -68 -19 0 -20 5 -16 75 2 41 5 78 8 83 7 11 19 8 33 -8z
m6550 0 c-14 -16 -50 -21 -50 -6 0 11 18 19 44 20 15 1 16 -2 6 -14z m-3974
-94 c-3 -44 -15 -117 -26 -163 -11 -46 -23 -93 -25 -105 -3 -13 -13 -23 -22
-23 -14 0 -15 11 -9 96 4 52 14 116 22 142 7 26 14 57 14 70 0 32 18 62 37 62
14 0 15 -10 9 -79z m-2147 60 c10 -6 10 -30 1 -112 -6 -57 -14 -107 -16 -111
-9 -15 -52 -8 -58 9 -5 12 -9 14 -18 5 -7 -7 -20 -12 -30 -12 -16 0 -17 9 -12
103 3 56 7 107 9 112 3 13 106 17 124 6z m5751 -11 c-14 -4 -43 -8 -65 -8
l-40 1 40 7 c22 4 51 7 65 8 l25 0 -25 -8z m210 0 c-19 -13 -30 -13 -30 0 0 6
10 10 23 10 18 0 19 -2 7 -10z m-6114 -100 c-1 -71 -5 -101 -14 -105 -20 -8
-25 20 -13 75 6 28 11 66 11 84 0 27 6 46 15 46 1 0 1 -45 1 -100z m5754 69
c-19 -16 -34 -20 -62 -16 -20 3 -56 -2 -79 -9 -23 -8 -48 -13 -56 -10 -19 8
-104 -13 -124 -31 -14 -12 -23 -11 -65 7 -64 28 -53 33 111 53 186 24 184 24
245 25 l55 1 -25 -20z m-5520 -101 c-14 -75 -28 -104 -41 -91 -12 12 8 141 24
161 22 27 30 -5 17 -70z m5069 63 c12 -8 12 -13 -3 -35 -22 -34 -36 -33 -36 2
0 41 12 50 39 33z m853 -7 c13 -8 10 -30 -7 -44 -9 -7 -26 -9 -45 -5 -75 16
-72 73 4 61 21 -4 43 -9 48 -12z m-6779 -18 c15 -16 12 -66 -5 -66 -5 0 -12 9
-15 20 -6 23 -23 26 -41 8 -9 -9 -12 -8 -12 5 0 12 36 42 57 47 1 0 8 -6 16
-14z m6841 -8 c8 -13 7 -21 -2 -30 -11 -11 -16 -9 -28 6 -8 11 -14 26 -14 34
0 18 30 11 44 -10z m-1498 -41 c2 -7 -3 -31 -12 -52 -13 -33 -18 -37 -28 -24
-6 8 -19 13 -28 11 -9 -2 -26 2 -38 8 -16 9 -25 8 -35 0 -17 -14 -77 -9 -82 7
-5 15 19 22 89 27 31 2 69 11 84 19 37 19 44 20 50 4z m-5326 -83 c0 -17 -22
-14 -28 4 -2 7 3 12 12 12 9 0 16 -7 16 -16z m4847 -6 c-3 -8 -6 -5 -6 6 -1
11 2 17 5 13 3 -3 4 -12 1 -19z m-4437 -13 c21 -25 2 -31 -20 -7 -15 16 -17
22 -7 22 8 0 20 -7 27 -15z m4370 0 c0 -18 -56 -49 -76 -41 -22 8 -17 36 9 46
35 14 67 12 67 -5z m-2200 -25 c12 -8 11 -10 -7 -10 -13 0 -23 5 -23 10 0 13
11 13 30 0z m1850 -36 c0 -17 -22 -14 -28 4 -2 7 3 12 12 12 9 0 16 -7 16 -16z
m-215 -14 c-3 -5 -13 -10 -21 -10 -8 0 -12 5 -9 10 3 6 13 10 21 10 8 0 12 -4
9 -10z m-110 -12 c-11 -6 -24 -17 -28 -25 -4 -7 -20 -13 -34 -13 -31 0 -24 11
22 34 35 19 72 22 40 4z m-90 -18 c-3 -5 -13 -10 -21 -10 -8 0 -12 5 -9 10 3
6 13 10 21 10 8 0 12 -4 9 -10z m-65 -10 l25 -8 -26 -1 c-14 -1 -34 -10 -44
-21 -9 -10 -27 -18 -39 -17 -14 1 -21 -3 -20 -15 1 -14 -3 -15 -24 -7 -33 13
-72 3 -72 -17 0 -8 -7 -22 -15 -30 -8 -9 -15 -11 -15 -5 0 6 -5 11 -11 11 -15
0 -49 39 -49 57 0 20 15 24 158 39 34 4 65 11 68 15 6 11 30 10 64 -1z m-7172
-260 c0 -68 -3 -94 -8 -75 -4 17 -8 91 -7 165 0 107 1 123 7 75 4 -33 8 -107
8 -165z m6856 212 c6 -10 -70 -83 -78 -75 -12 13 -5 35 19 58 24 25 49 32 59
17z m-227 -49 c0 -24 -18 -35 -34 -21 -21 17 -15 38 10 38 16 0 24 -6 24 -17z
m-835 -95 c-6 -23 -6 -23 -12 2 -3 14 -4 36 -1 50 l4 25 8 -27 c4 -15 4 -38 1
-50z m-2546 -25 c-10 -10 -19 5 -10 18 6 11 8 11 12 0 2 -7 1 -15 -2 -18z
m-79 1 c-3 -3 -12 -4 -19 -1 -8 3 -5 6 6 6 11 1 17 -2 13 -5z m-2670 -30 c12
-2 27 -12 32 -22 6 -11 10 -197 12 -453 l2 -434 -49 0 c-91 1 -84 -25 -84 317
0 166 -5 364 -11 440 -6 75 -9 144 -5 153 6 16 24 16 103 -1z m2739 -125 c-5
-71 -10 -88 -23 -76 -6 7 15 147 23 147 3 0 3 -32 0 -71z m-1740 16 c220 -25
458 -54 529 -64 72 -11 164 -23 205 -27 41 -3 82 -10 91 -15 13 -7 16 -51 19
-346 2 -186 4 -363 4 -393 1 -55 1 -55 -29 -54 -16 0 -45 4 -62 8 -31 7 -33 6
-33 -18 0 -13 -4 -27 -9 -31 -9 -5 -166 7 -636 50 -416 37 -478 44 -485 55 -4
6 -10 200 -13 432 -7 393 -4 448 18 448 1 0 182 -20 401 -45z m4306 15 c1 -9
-1 -17 -7 -18 -5 -1 -11 10 -13 25 -4 29 13 23 20 -7z m103 -66 c-2 -10 -4
-26 -4 -34 -2 -30 -21 13 -21 48 0 29 2 32 14 19 8 -8 13 -23 11 -33z m-95
-15 c0 -16 5 -29 11 -29 14 0 3 -50 -16 -69 -7 -7 -18 -10 -24 -7 -16 10 -14
133 2 139 20 7 27 -2 27 -34z m-3411 -202 c0 -50 -2 -88 -4 -85 -2 2 -7 49
-10 104 -3 63 -2 94 4 85 5 -8 10 -55 10 -104z m981 71 c0 -4 6 -8 14 -8 13 0
13 -53 0 -118 -7 -33 -28 -22 -32 16 -3 28 -7 32 -33 32 -38 0 -39 25 -3 82
25 39 27 41 40 23 8 -10 14 -22 14 -27z m6970 -9 c0 -5 10 -9 23 -9 17 -1 19
-2 7 -9 -10 -6 -15 -24 -14 -53 1 -23 -4 -46 -10 -50 -18 -13 -46 -9 -46 6 0
8 8 17 18 21 16 6 16 7 0 19 -9 7 -19 30 -23 53 -5 39 -5 40 20 36 14 -3 25
-9 25 -14z m-3375 1 c-3 -5 -10 -10 -16 -10 -5 0 -9 5 -9 10 0 6 7 10 16 10 8
0 12 -4 9 -10z m-3693 -117 c3 -28 2 -57 -2 -63 -7 -11 -30 84 -30 124 0 43
28 -8 32 -61z m4417 55 c5 -13 12 -39 16 -58 l7 -35 -25 23 c-31 29 -44 72
-25 83 18 12 17 12 27 -13z m-614 -9 c0 -7 -8 -15 -17 -17 -18 -3 -25 18 -11
32 10 10 28 1 28 -15z m3233 -136 c-2 -11 -14 -19 -33 -21 l-29 -4 24 21 c31
25 42 26 38 4z m-268 -93 c0 -13 -11 -13 -30 0 -12 8 -11 10 8 10 12 0 22 -4
22 -10z m244 -6 c22 -8 21 -44 -1 -44 -33 0 -63 12 -63 25 0 21 34 31 64 19z
m-688 -78 c18 -14 18 -16 -17 -51 -23 -23 -41 -34 -51 -30 -30 12 -29 36 2 66
34 33 39 34 66 15z m1119 4 c4 -6 -5 -10 -19 -10 -14 0 -26 5 -26 10 0 6 9 10
19 10 11 0 23 -4 26 -10z m-6015 -10 c0 -5 -4 -10 -10 -10 -5 0 -10 5 -10 10
0 6 5 10 10 10 6 0 10 -4 10 -10z m5624 -28 l23 -17 -21 -16 c-15 -10 -39 -13
-82 -11 -61 4 -61 4 -50 27 8 17 21 25 46 28 19 2 41 4 48 5 8 1 24 -6 36 -16z
m-525 -48 c19 -24 19 -54 -1 -54 -23 0 -68 32 -68 49 0 39 39 43 69 5z m-1637
-116 c-3 -13 -10 -17 -23 -13 -11 4 -19 2 -19 -4 0 -6 -4 -11 -9 -11 -4 0 -6
11 -3 25 3 20 10 25 32 23 21 -2 26 -6 22 -20z m146 6 c29 1 55 -1 58 -5 2 -4
13 -5 24 -2 11 3 31 2 45 -1 l26 -7 -2 -105 c-1 -74 2 -109 11 -114 17 -11 33
-129 35 -255 1 -121 8 -177 32 -246 14 -40 14 -56 4 -110 -7 -35 -15 -86 -19
-114 l-7 -50 -23 25 c-13 14 -33 41 -45 60 -19 30 -49 66 -99 118 -31 32 -138
92 -192 107 -46 13 -84 16 -165 13 -127 -6 -193 -31 -269 -102 l-49 -46 -31
92 c-17 51 -47 139 -67 196 -19 56 -35 111 -35 122 0 10 -4 22 -10 25 -5 3
-10 15 -10 25 0 25 24 17 38 -13 l11 -22 0 23 c1 30 29 28 43 -3 14 -30 48
-34 48 -5 0 11 5 20 12 20 38 0 63 70 36 99 -11 10 -6 18 20 42 40 36 90 37
107 2 26 -51 70 -113 81 -113 7 0 26 -11 42 -25 20 -16 42 -25 65 -25 38 0 46
15 38 73 -3 23 -10 29 -46 38 -49 12 -60 28 -40 55 9 14 24 18 56 16 56 -2 82
6 75 23 -3 9 0 12 9 8 8 -3 12 -9 9 -14 -3 -5 8 -9 24 -9 19 0 35 8 44 22 11
17 20 20 42 14 15 -4 24 -10 22 -15 -6 -9 27 -21 59 -21 19 1 19 1 3 14 -10 7
-18 19 -18 27 1 21 25 49 44 49 16 0 21 11 10 23 -4 3 -13 -1 -21 -9 -14 -13
-17 -13 -34 2 -16 14 -16 18 -4 31 19 19 19 34 0 27 -8 -4 -23 -3 -32 0 -15 6
-15 8 -3 16 12 8 11 10 -5 11 -20 2 -40 4 -60 8 -5 1 -4 5 4 10 8 5 24 6 35 1
12 -4 45 -7 74 -6z m-4988 -24 c0 -5 -2 -10 -4 -10 -3 0 -8 5 -11 10 -3 6 -1
10 4 10 6 0 11 -4 11 -10z m4205 -141 c16 -15 -10 -31 -46 -27 -26 2 -35 8
-37 25 -3 20 0 21 35 16 21 -3 42 -10 48 -14z m414 -71 c-13 -24 -52 -21 -57
5 -4 21 37 40 55 25 9 -7 10 -15 2 -30z m-7403 -41 c4 -4 9 -112 11 -240 2
-127 5 -263 7 -302 4 -88 -8 -135 -34 -135 -12 0 -26 -12 -35 -30 -19 -38 -37
-39 -33 -2 3 23 -1 27 -25 30 -44 5 -50 35 -41 212 4 85 8 209 9 275 1 66 2
140 3 164 l2 43 65 -4 c35 -2 67 -7 71 -11z m7144 -16 c0 -11 -4 -23 -10 -26
-5 -3 -10 -2 -10 4 0 5 -3 16 -6 25 -4 11 -1 16 10 16 9 0 16 -8 16 -19z
m-6425 -29 c38 -7 40 -9 37 -42 -2 -19 -5 -42 -8 -51 -3 -12 14 -30 55 -60 75
-55 82 -69 36 -69 -41 0 -46 -16 -10 -32 37 -17 31 -25 -25 -30 -28 -3 -59
-13 -70 -23 -11 -10 -26 -15 -35 -11 -9 3 -25 1 -35 -4 -14 -7 -30 -6 -58 5
l-39 16 -7 145 c-3 80 -4 150 0 155 6 11 101 11 159 1z m165 -8 c33 -7 70 -52
70 -86 0 -28 -21 -21 -80 27 -30 25 -59 45 -63 45 -5 0 -5 5 -2 10 7 12 29 13
75 4z m713 -79 c3 -15 -74 -38 -87 -25 -13 13 -4 21 36 30 39 9 49 8 51 -5z
m181 -20 c23 -15 24 -21 20 -98 -5 -125 -7 -128 -51 -77 -27 32 -43 38 -43 16
0 -7 -7 -19 -15 -26 -11 -9 -15 -9 -15 -1 0 7 -16 19 -35 27 -43 18 -44 28 -4
44 17 8 40 23 50 34 20 21 25 61 9 71 -5 3 -10 10 -10 16 0 15 69 10 94 -6z
m-494 -125 c0 -5 -17 -17 -37 -25 -54 -23 -71 -42 -78 -88 -10 -57 -14 -62
-36 -38 -11 12 -24 21 -29 21 -5 0 -14 9 -20 21 -14 25 6 57 24 39 7 -7 17 -2
31 16 31 39 145 81 145 54z m240 -25 c0 -15 -49 -45 -75 -45 -18 0 -20 31 -3
48 18 18 78 16 78 -3z m100 -140 c0 -28 -8 -31 -35 -12 -21 16 -12 37 16 37
14 0 19 -7 19 -25z m-702 -2 c-3 -14 -13 -18 -44 -17 -22 0 -49 4 -59 8 -31
11 1 26 58 26 41 0 48 -3 45 -17z m602 -3 c0 -5 -7 -7 -15 -4 -8 4 -15 8 -15
10 0 2 7 4 15 4 8 0 15 -4 15 -10z m175 -20 c3 -5 1 -10 -4 -10 -6 0 -11 5
-11 10 0 6 2 10 4 10 3 0 8 -4 11 -10z m-1089 -21 c10 -17 -23 -46 -37 -32 -7
7 -9 19 -6 27 7 18 33 21 43 5z m728 -56 c4 -4 23 -6 42 -4 40 3 42 -5 14 -59
-20 -39 -56 -68 -68 -55 -9 8 -9 125 -1 125 3 0 9 -3 13 -7z m-476 -15 c19
-19 14 -37 -23 -94 -41 -62 -69 -81 -90 -64 -19 15 -4 45 36 78 16 13 29 30
29 38 0 19 18 54 28 54 5 0 13 -5 20 -12z m343 -21 c-10 -9 -11 -8 -5 6 3 10
9 15 12 12 3 -3 0 -11 -7 -18z m602 -54 c9 -38 19 -124 21 -193 3 -69 10 -183
16 -254 7 -70 8 -140 4 -155 -12 -44 -12 -49 -4 -88 5 -21 11 -81 14 -133 3
-52 8 -131 10 -175 17 -282 28 -675 18 -675 -4 0 -20 22 -36 49 -29 49 -29 52
-27 181 2 106 0 131 -11 128 -7 -3 -14 -15 -16 -27 -2 -13 -15 -27 -30 -33
-15 -6 -38 -24 -52 -40 -24 -28 -26 -28 -50 -11 -14 10 -35 16 -48 14 -13 -1
-30 3 -38 9 -16 14 -19 60 -4 60 5 0 18 17 29 38 11 21 27 44 35 51 9 8 16 22
16 33 0 15 5 18 17 14 15 -6 15 -4 -2 14 -22 25 -35 26 -35 3 0 -26 -37 -83
-54 -83 -7 0 -16 -10 -20 -22 l-6 -23 -13 25 c-17 32 -37 111 -37 144 0 14 -4
26 -9 26 -10 0 -62 52 -102 102 -38 47 -69 113 -69 144 0 32 26 64 51 64 18 0
60 49 72 83 12 32 -58 -13 -92 -60 -17 -24 -35 -43 -41 -43 -16 0 -36 41 -54
108 -20 73 -16 92 18 92 14 0 28 5 31 10 3 6 16 10 28 11 20 1 20 2 -3 9 -24
8 -23 8 7 9 28 1 35 -4 47 -34 14 -32 46 -49 46 -25 0 6 9 10 20 10 26 0 28
39 3 41 -17 1 -17 2 0 6 37 10 8 28 -63 40 -41 7 -78 17 -84 23 -5 5 -27 10
-48 10 -25 0 -40 6 -47 18 -14 26 -24 108 -17 137 7 27 36 35 36 10 0 -8 8
-15 18 -15 10 0 57 -11 104 -25 98 -29 121 -24 151 26 26 46 22 89 -10 115
-31 25 -26 54 11 54 17 0 26 7 30 25 8 30 14 31 88 4 50 -17 61 -18 84 -7 47
23 50 39 18 102 -24 47 -32 56 -55 56 -26 0 -89 43 -89 60 0 13 50 22 81 15
20 -5 29 -13 29 -26 0 -27 13 -24 38 11 37 49 56 40 75 -37z m-1128 37 c-3 -5
-10 -10 -16 -10 -5 0 -9 5 -9 10 0 6 7 10 16 10 8 0 12 -4 9 -10z m6499 -62
c5 -25 6 -54 1 -64 -6 -17 -9 -15 -21 11 -7 17 -13 47 -14 68 0 54 22 43 34
-15z m-6094 -103 c0 -7 -6 -18 -14 -24 -20 -17 -39 16 -24 42 7 15 12 16 24 6
8 -6 14 -17 14 -24z m-1180 -60 c0 -6 -10 -16 -21 -23 -30 -19 -46 -1 -31 33
10 22 14 24 32 13 11 -7 20 -17 20 -23z m7985 27 c29 -21 35 -39 24 -71 -6
-17 -17 -31 -25 -31 -14 0 -84 65 -84 78 0 4 15 13 33 19 43 14 41 14 52 5z
m-8014 -88 c10 -13 10 -19 0 -36 -10 -16 -9 -26 4 -54 21 -44 12 -74 -22 -74
-23 0 -25 3 -19 31 3 17 6 58 6 90 0 60 8 71 31 43z m8103 8 c3 -5 6 -40 7
-78 0 -38 6 -83 12 -101 8 -25 7 -36 -6 -57 -18 -27 -23 -81 -8 -90 5 -4 14
-29 20 -57 10 -45 9 -55 -9 -84 -26 -43 -28 -149 -3 -177 22 -24 20 -105 -3
-149 -14 -29 -18 -30 -57 -24 -23 3 -56 11 -74 16 -40 13 -116 104 -108 130 4
12 -10 35 -45 74 -28 31 -48 60 -45 64 2 5 21 12 41 15 75 15 94 33 94 96 0
14 9 31 20 38 11 7 20 21 20 33 0 11 11 30 25 43 14 13 25 34 25 48 0 14 9 33
21 44 16 15 19 26 14 54 -18 102 -17 107 6 139 22 31 43 39 53 23z m-6824 -22
c0 -11 -4 -20 -10 -20 -5 0 -10 9 -10 20 0 11 5 20 10 20 6 0 10 -9 10 -20z
m198 -13 c4 -21 -37 -40 -55 -25 -9 7 -10 15 -2 30 13 24 52 21 57 -5z m-672
-215 c1 -48 8 -107 16 -132 12 -37 18 -44 36 -42 15 2 22 -2 22 -14 0 -18 -12
-34 -62 -82 -16 -15 -28 -30 -28 -34 0 -16 34 -7 65 17 34 25 45 24 45 -7 0
-48 67 -16 84 39 6 18 2 25 -18 35 -26 11 -30 18 -26 52 1 15 -3 17 -24 12
-32 -8 -34 6 -4 34 19 18 23 18 38 5 9 -8 19 -12 23 -9 10 10 55 -23 62 -46
10 -32 24 -14 19 25 -4 35 18 85 38 85 5 0 21 -9 35 -20 14 -11 30 -20 35 -20
5 0 20 25 33 55 14 30 30 55 35 55 6 0 24 -7 40 -15 27 -14 30 -20 30 -68 0
-63 12 -110 52 -200 16 -37 27 -76 24 -85 -3 -9 -23 -28 -43 -41 -41 -25 -89
-78 -79 -88 9 -9 69 18 86 39 9 10 29 20 45 21 25 2 33 -4 47 -32 9 -18 27
-44 39 -57 15 -16 23 -36 22 -59 -1 -27 3 -35 19 -37 11 -2 34 -22 51 -45 29
-40 29 -43 13 -67 -20 -31 -21 -42 -1 -26 17 15 20 10 33 -66 10 -57 -1 -94
-28 -94 -10 0 -20 7 -24 15 -3 8 -17 15 -31 15 -19 0 -25 -5 -25 -21 0 -12 8
-23 19 -26 29 -7 33 -30 8 -48 -32 -22 -51 -19 -75 14 -16 22 -20 39 -17 63 5
27 4 29 -4 11 -5 -12 -18 -26 -27 -31 -15 -8 -16 -13 -5 -26 8 -9 11 -26 7
-41 -5 -18 -3 -23 8 -19 17 6 46 -22 46 -45 0 -26 9 -31 37 -20 33 12 73 1 73
-21 0 -28 -33 -49 -83 -54 -39 -4 -47 -2 -48 12 0 14 -2 14 -6 2 -3 -8 -17
-25 -31 -38 l-27 -23 36 6 c22 4 39 3 43 -4 4 -5 13 -8 21 -4 8 3 15 0 15 -6
0 -6 -7 -11 -15 -11 -8 0 -15 -4 -15 -9 0 -15 39 -23 76 -16 27 5 34 11 34 30
0 27 17 36 43 23 15 -8 16 -12 6 -24 -10 -12 -10 -17 -1 -23 19 -11 315 -1
330 11 8 7 16 8 22 2 18 -18 62 -187 57 -219 -3 -16 0 -39 6 -50 17 -31 26
-117 12 -105 -16 13 -25 2 -25 -31 0 -15 -4 -31 -10 -34 -17 -10 -11 -25 13
-35 21 -9 21 -9 2 -15 -18 -5 -20 -13 -17 -78 1 -40 9 -91 17 -114 16 -50 15
-51 -70 -82 -73 -27 -149 -73 -180 -109 -25 -28 -101 -178 -137 -267 -24 -59
-43 -168 -64 -363 -9 -85 -23 -164 -34 -193 -11 -27 -20 -67 -20 -88 0 -74
-39 -118 -100 -113 -23 2 -24 1 -7 -11 9 -8 17 -19 17 -25 0 -7 9 -11 19 -9
11 1 20 -1 20 -5 3 -33 -2 -50 -21 -72 -25 -27 -50 -31 -206 -27 -63 1 -73 3
-70 18 2 9 18 21 37 26 19 5 44 15 55 23 11 8 33 14 48 14 15 0 30 5 33 11 4
6 17 15 29 20 16 7 14 8 -11 3 -28 -5 -33 -3 -33 14 0 18 -5 21 -55 25 -15 1
-23 7 -21 14 6 15 -53 28 -86 18 -18 -6 -13 3 23 39 44 44 50 47 124 56 43 5
94 7 115 4 41 -7 80 8 80 31 0 22 -10 23 -90 14 -96 -11 -147 -11 -186 2 -31
10 -32 12 -36 78 -2 47 -9 73 -21 85 -20 21 -20 16 -2 59 21 50 20 50 -26 65
-34 11 -45 10 -71 -3 -17 -8 -46 -15 -65 -15 -18 0 -33 -4 -33 -10 0 -5 -7
-10 -15 -10 -9 0 -15 9 -15 25 0 17 -6 25 -17 26 -56 5 -82 3 -117 -8 -80 -26
-79 -27 -72 95 10 165 11 303 2 349 -7 40 -6 42 25 58 32 17 32 17 12 34 -15
11 -23 33 -28 74 -6 55 -21 82 -77 139 -15 15 -18 36 -18 120 0 117 -20 206
-58 257 -24 33 -37 106 -25 138 7 19 69 54 100 57 38 4 69 46 54 74 -8 16 -8
24 3 35 12 12 25 12 65 4 53 -10 69 -27 27 -27 -52 0 -33 -18 25 -23 77 -7
129 6 122 32 -3 12 2 20 16 24 23 6 49 -17 31 -28 -5 -3 -10 -11 -10 -17 0
-11 135 -7 146 4 6 7 -19 49 -63 108 -18 24 -33 46 -33 51 0 11 54 21 92 17
24 -2 33 1 33 12 0 10 -9 15 -26 14 -19 0 -25 4 -22 13 6 16 -36 65 -48 58
-18 -12 -20 20 -3 57 18 39 18 41 -1 54 -17 13 -21 12 -36 -7 -15 -20 -19 -21
-48 -10 -29 12 -30 16 -25 51 7 43 -1 52 -54 56 -31 2 -34 1 -29 -22 5 -26
-11 -32 -31 -12 -9 9 -12 9 -12 0 0 -7 -5 -12 -11 -12 -6 0 -19 -10 -30 -22
-10 -13 -18 -17 -19 -10 0 13 -40 17 -40 4 0 -4 10 -16 21 -26 15 -13 24 -15
32 -7 6 6 20 11 30 11 10 0 21 9 24 19 3 12 11 17 20 14 11 -4 10 -9 -6 -25
-12 -10 -21 -27 -21 -37 0 -10 -7 -24 -15 -31 -8 -7 -15 -21 -15 -32 0 -14 -5
-18 -17 -14 -13 4 -22 -4 -34 -29 -15 -32 -15 -35 2 -51 16 -14 23 -15 48 -4
22 9 34 9 50 0 18 -9 27 -7 52 14 17 14 26 26 20 26 -6 0 -11 9 -11 20 0 13 7
20 20 20 14 0 20 -7 20 -24 0 -15 13 -36 35 -55 41 -35 43 -46 13 -62 -17 -9
-24 -9 -33 5 -15 20 -41 21 -48 2 -3 -8 -26 -16 -54 -19 -26 -3 -61 -8 -77
-12 -21 -6 -27 -5 -22 4 4 6 4 17 -1 24 -5 8 -9 2 -13 -18 -3 -17 -11 -30 -20
-30 -12 0 -15 19 -17 95 -2 52 -5 133 -7 180 -3 94 8 165 26 154 6 -4 35 -8
64 -10 29 -1 58 -5 65 -9 9 -6 10 0 5 21 -21 82 -20 91 11 97 19 4 37 0 56
-14 34 -25 57 -19 57 15 0 26 -44 56 -84 56 -25 0 -85 54 -88 78 -1 9 -2 40
-2 67 -1 49 -1 50 -35 53 -40 4 -48 -6 -49 -63 -1 -38 4 -49 39 -84 39 -39 44
-61 13 -61 -8 0 -14 5 -14 10 0 6 -7 10 -15 10 -11 0 -15 -11 -15 -42 0 -24
-4 -49 -9 -57 -14 -23 -32 85 -25 150 3 32 1 118 -6 191 -9 93 -9 140 -2 154
7 13 7 48 -1 110 -5 50 -7 103 -3 118 6 26 8 27 20 11 20 -27 39 -9 32 29 l-6
31 22 -23 c20 -20 23 -33 24 -110z m7141 25 c-4 -33 -15 -59 -31 -76 -13 -14
-29 -36 -35 -48 -6 -13 -17 -23 -23 -23 -10 0 -10 6 10 82 12 47 63 129 75
121 5 -3 7 -28 4 -56z m-3773 -60 l-6 -63 38 -31 c22 -16 47 -33 57 -36 10 -4
16 -11 13 -16 -3 -5 2 -12 12 -16 15 -6 14 -8 -6 -16 -35 -13 -45 -50 -20 -71
11 -10 31 -18 44 -18 15 0 24 -6 24 -15 0 -8 -4 -15 -10 -15 -5 0 -10 -7 -10
-15 0 -17 9 -19 44 -6 15 6 23 16 22 28 -2 10 -1 12 1 6 7 -20 16 -16 58 21
21 19 50 40 64 47 34 18 81 65 81 83 0 8 7 17 16 20 8 3 13 2 10 -2 -3 -5 -2
-21 2 -37 7 -25 9 -26 24 -12 8 9 21 47 28 84 6 37 16 78 22 90 6 12 8 29 5
37 -4 11 -1 16 12 16 42 0 58 -123 27 -205 -53 -143 -78 -213 -82 -235 -3 -14
-11 -32 -18 -40 -8 -8 -11 -21 -9 -28 5 -13 -20 -75 -40 -100 -8 -10 -14 -9
-28 4 -16 14 -17 26 -12 76 6 59 6 60 -15 49 -12 -7 -22 -16 -22 -21 0 -6 -11
-10 -25 -10 -15 0 -31 -9 -41 -24 -8 -14 -21 -23 -28 -20 -8 3 -16 -2 -19 -10
-4 -9 -13 -13 -22 -10 -11 5 -15 0 -15 -19 0 -22 -6 -26 -47 -33 -43 -8 -48
-12 -51 -38 -3 -22 -7 -27 -23 -23 -18 5 -20 1 -17 -28 3 -42 -4 -49 -37 -41
-26 7 -26 8 -11 31 15 22 14 24 -5 30 -14 5 -25 1 -34 -12 -8 -10 -15 -13 -15
-6 0 6 5 15 10 18 20 12 11 33 -12 27 -18 -4 -20 -2 -15 18 12 48 -6 59 -96
58 -45 0 -95 0 -112 1 l-30 2 30 17 c21 12 30 23 27 36 -3 12 1 17 10 14 7 -3
13 -11 13 -19 0 -8 9 -19 20 -26 26 -16 35 -16 35 1 0 7 7 19 15 26 8 7 12 17
8 24 -4 6 -8 18 -10 26 -7 48 -5 123 4 103 2 -7 13 -13 23 -13 20 0 34 -40 25
-70 -3 -10 -1 -21 5 -25 17 -11 11 -25 -12 -26 -21 -1 -21 -2 5 -12 15 -6 27
-19 27 -29 0 -10 7 -18 15 -18 30 0 5 161 -30 186 -15 11 -15 14 -4 14 9 0 21
10 27 23 13 26 62 274 62 315 0 16 3 32 7 35 18 18 23 1 17 -56z m-4184 18 c8
-7 43 -23 77 -35 51 -18 64 -28 72 -52 9 -24 7 -38 -9 -69 -10 -22 -22 -54
-26 -72 l-6 -32 21 19 c12 11 23 17 25 15 7 -7 15 -268 17 -519 1 -279 2 -260
-14 -260 -18 0 -98 39 -120 58 -9 8 -41 19 -70 23 -28 4 -78 17 -109 29 -48
18 -58 25 -58 45 0 13 7 28 15 32 8 5 20 36 26 68 7 33 15 69 20 80 4 11 10
52 14 90 3 39 12 106 20 150 7 44 19 123 25 175 15 130 18 140 42 149 23 8
125 -13 142 -30 17 -15 26 -10 26 15 0 33 -16 42 -82 50 -31 3 -64 9 -73 12
-23 9 -38 53 -24 70 11 14 21 12 49 -11z m5355 15 c3 -5 1 -10 -4 -10 -6 0
-11 5 -11 10 0 6 2 10 4 10 3 0 8 -4 11 -10z m-5385 -84 c0 -3 -4 -8 -10 -11
-5 -3 -10 -1 -10 4 0 6 5 11 10 11 6 0 10 -2 10 -4z m7766 -238 c-9 -45 -53
-138 -65 -138 -22 0 -48 -43 -61 -98 -17 -80 -19 -84 -30 -77 -12 7 -30 72
-30 105 1 14 16 50 35 80 19 30 41 69 48 86 17 37 62 74 90 74 17 0 19 -5 13
-32z m-2952 -13 c-4 -8 -8 -15 -10 -15 -2 0 -4 7 -4 15 0 8 4 15 10 15 5 0 7
-7 4 -15z m-944 -14 c0 -9 -24 -21 -43 -21 -7 0 -6 4 3 10 12 8 11 10 -7 10
-13 0 -24 -4 -24 -10 -1 -5 -2 -15 -3 -20 -1 -13 -26 -30 -45 -30 -11 0 -10 5
4 20 22 24 16 25 -30 3 -29 -14 -35 -22 -35 -47 0 -20 7 -36 20 -44 39 -24 24
-39 -37 -39 -66 -1 -95 10 -87 32 5 11 -2 15 -25 15 -21 0 -31 -5 -31 -15 0
-8 5 -15 11 -15 5 0 7 -4 4 -10 -3 -5 -20 -10 -37 -10 -17 0 -28 -3 -25 -6 3
-4 36 -6 72 -5 40 1 76 -4 93 -13 27 -14 86 -11 77 4 -3 4 1 10 9 13 18 7 56
-3 56 -14 0 -5 21 -9 47 -9 25 0 44 -2 41 -5 -16 -16 -411 -22 -450 -6 -35 13
-36 20 -3 13 20 -3 25 0 25 17 0 15 6 21 22 21 12 0 18 3 15 7 -4 3 -3 11 2
17 4 6 10 21 13 33 4 16 0 23 -15 27 -32 8 -17 15 41 17 28 2 52 6 52 11 0 4
5 8 10 8 6 0 21 9 32 20 15 13 34 20 55 18 18 -1 35 1 39 5 11 10 154 9 154
-2z m98 -39 c2 -33 0 -42 -12 -42 -10 0 -16 -10 -17 -27 -1 -16 -5 1 -10 36
-9 70 -6 84 19 79 12 -2 18 -16 20 -46z m-358 28 c0 -5 -9 -10 -21 -10 -11 0
-17 5 -14 10 3 6 13 10 21 10 8 0 14 -4 14 -10z m1464 -10 c30 -11 35 -47 10
-57 -19 -7 -44 21 -44 49 0 21 1 21 34 8z m-1684 -10 c0 -5 -5 -10 -11 -10
-14 0 -5 -96 11 -115 10 -12 9 -15 -3 -15 -32 0 -47 29 -47 91 0 56 1 59 25
59 14 0 25 -4 25 -10z m123 3 c-7 -2 -19 -2 -25 0 -7 3 -2 5 12 5 14 0 19 -2
13 -5z m-3834 -30 c-1 -10 -5 -29 -9 -43 -7 -21 -8 -19 -9 18 -1 23 4 42 9 42
6 0 10 -8 9 -17z m5092 -94 c-29 -24 -42 -24 -34 -1 9 27 35 44 47 31 8 -7 4
-16 -13 -30z m-5086 -111 c2 -11 -1 -15 -11 -11 -9 3 -14 19 -13 42 0 34 1 35
10 11 6 -14 12 -33 14 -42z m5023 9 c3 -23 0 -27 -23 -27 -30 0 -43 24 -25 46
19 22 45 13 48 -19z m-148 -18 c-12 -40 -17 -46 -32 -31 -15 15 5 62 26 62 12
0 13 -6 6 -31z m-3700 -4 c0 -8 -9 -15 -20 -15 -11 0 -20 7 -20 15 0 8 9 15
20 15 11 0 20 -7 20 -15z m-1167 -112 c4 -54 3 -101 -2 -106 -4 -4 -28 -7 -52
-5 -43 3 -44 4 -47 43 -2 21 2 58 9 82 9 35 16 43 35 43 17 0 24 6 24 20 0 11
6 20 13 20 10 0 16 -25 20 -97z m4252 87 c6 -10 -31 -15 -83 -12 -12 0 -20 -3
-17 -8 3 -5 -9 -10 -27 -13 l-33 -3 32 -8 c34 -9 41 -23 35 -68 -4 -23 -9 -28
-32 -28 -20 0 -29 6 -33 22 -6 20 -7 21 -32 4 -15 -10 -36 -16 -46 -13 -16 4
-19 0 -17 -24 1 -16 6 -29 10 -29 4 0 8 -9 8 -20 0 -11 -3 -20 -7 -20 -13 0
-32 -49 -22 -56 5 -3 9 -23 9 -45 0 -37 -2 -39 -30 -39 -20 0 -30 5 -30 15 0
8 9 15 20 15 24 0 17 25 -18 57 -31 29 -36 29 -28 -1 3 -14 2 -28 -4 -31 -5
-3 -10 -17 -10 -31 0 -14 -7 -27 -15 -30 -19 -8 -20 -68 -1 -83 19 -16 3 -65
-26 -86 -18 -12 -24 -12 -44 2 -18 11 -24 12 -24 2 0 -7 -3 -10 -6 -7 -3 4 6
35 20 70 14 36 26 81 26 100 0 20 7 41 15 48 22 18 18 36 -11 57 -24 17 -25
22 -14 43 13 25 7 57 -31 154 -10 27 -16 52 -14 56 2 4 30 8 62 9 31 1 59 3
61 5 9 10 351 6 357 -4z m595 -30 c0 -5 -5 -10 -11 -10 -5 0 -7 5 -4 10 3 6 8
10 11 10 2 0 4 -4 4 -10z m990 -26 c0 -2 -9 -4 -21 -4 -11 0 -18 4 -14 10 5 8
35 3 35 -6z m-1356 -91 c5 -14 3 -23 -3 -23 -9 0 -16 23 -9 33 1 1 -4 12 -10
24 -7 12 -9 30 -5 40 6 14 9 10 13 -17 4 -19 10 -45 14 -57z m816 83 c0 -3 -4
-8 -10 -11 -5 -3 -10 -1 -10 4 0 6 5 11 10 11 6 0 10 -2 10 -4z m-920 -35 c0
-11 -5 -23 -11 -27 -15 -9 -33 12 -26 30 9 23 37 20 37 -3z m1478 1 c3 -9 -3
-13 -19 -10 -12 1 -24 9 -27 16 -3 9 3 13 19 10 12 -1 24 -9 27 -16z m1202 -8
c0 -17 -22 -14 -28 4 -2 7 3 12 12 12 9 0 16 -7 16 -16z m5 -65 c0 -25 -5 -35
-19 -37 -15 -3 -18 1 -14 22 4 18 1 26 -8 26 -20 0 -17 18 4 23 30 8 37 1 37
-34z m-3003 -38 c2 -21 -2 -36 -9 -38 -9 -3 -13 9 -13 43 0 54 16 50 22 -5z
m948 16 c14 -13 31 -33 38 -45 10 -18 10 -22 -3 -22 -9 0 -12 -6 -8 -16 4 -11
8 -12 13 -4 4 7 13 9 20 5 8 -5 9 -10 1 -18 -7 -7 -7 -14 0 -24 19 -22 2 -62
-29 -69 -15 -4 -33 -11 -39 -16 -19 -15 -61 -1 -68 22 -3 11 -17 23 -31 26
-14 4 -24 13 -24 24 0 31 21 34 46 6 32 -33 40 -33 59 4 9 17 21 30 28 31 6 0
2 4 -10 9 -13 6 -20 15 -17 23 3 8 -2 20 -11 27 -18 15 -20 60 -2 60 6 0 23
-11 37 -23z m-875 2 c4 -6 13 -8 20 -5 8 3 11 -2 8 -15 -3 -10 -9 -19 -13 -19
-14 0 -70 34 -70 43 0 11 48 8 55 -4z m385 -4 c0 -15 -26 -32 -36 -23 -2 3 -2
13 2 22 8 20 34 21 34 1z m1295 5 c3 -5 -1 -10 -9 -10 -9 0 -16 5 -16 10 0 6
4 10 9 10 6 0 13 -4 16 -10z m-1285 -73 c0 -5 -4 -5 -10 -2 -5 3 -10 14 -10
23 0 15 2 15 10 2 5 -8 10 -19 10 -23z m-3133 -45 c2 -39 -18 -42 -37 -6 -12
22 -12 27 0 34 23 15 35 6 37 -28z m3818 28 c3 -5 1 -10 -4 -10 -6 0 -11 5
-11 10 0 6 2 10 4 10 3 0 8 -4 11 -10z m-2955 -4 c0 -3 -4 -8 -10 -11 -5 -3
-10 -1 -10 4 0 6 5 11 10 11 6 0 10 -2 10 -4z m2708 -10 c-7 -8 -15 -12 -17
-11 -5 6 10 25 20 25 5 0 4 -6 -3 -14z m572 4 c0 -5 -4 -10 -10 -10 -5 0 -10
5 -10 10 0 6 5 10 10 10 6 0 10 -4 10 -10z m-3532 -66 l37 -16 -39 -20 c-30
-15 -46 -18 -70 -11 -44 12 -46 40 -4 52 18 5 34 10 36 10 1 1 19 -6 40 -15z
m270 4 c17 -17 15 -58 -3 -58 -14 0 -55 37 -55 51 0 18 42 23 58 7z m310 0
c16 -16 15 -38 -2 -38 -18 0 -39 27 -31 40 8 13 18 13 33 -2z m2889 -4 c-3 -3
-12 -4 -19 -1 -8 3 -5 6 6 6 11 1 17 -2 13 -5z m-3342 -20 c20 -15 20 -15 1
-30 -20 -14 -50 -11 -74 9 -11 9 -11 13 4 24 23 17 44 16 69 -3z m322 -86 c-3
-7 -5 -2 -5 12 0 14 2 19 5 13 2 -7 2 -19 0 -25z m93 22 c0 -5 -4 -10 -10 -10
-5 0 -10 5 -10 10 0 6 5 10 10 10 6 0 10 -4 10 -10z m-385 -20 c12 -19 -40
-29 -101 -19 -33 5 -67 11 -76 12 -10 1 -18 4 -18 7 0 11 188 11 195 0z m91
-7 c17 -17 17 -18 -5 -21 -27 -4 -47 11 -37 27 10 16 22 14 42 -6z m328 -136
c-8 -215 -17 -250 -59 -233 -13 5 -12 12 4 58 11 29 23 71 26 93 3 22 8 54 11
72 4 27 1 34 -23 45 -31 14 -42 50 -23 73 10 12 16 11 40 -6 27 -20 27 -23 24
-102z m2051 113 c-3 -5 -10 -10 -16 -10 -5 0 -9 5 -9 10 0 6 7 10 16 10 8 0
12 -4 9 -10z m1215 -119 c-8 -14 -9 -14 -10 2 0 12 -8 17 -27 18 -24 0 -25 1
-8 8 11 4 20 14 21 22 3 40 6 41 19 5 9 -26 11 -45 5 -55z m-3780 69 c11 -7 3
-10 -30 -10 -33 0 -41 3 -30 10 8 5 22 10 30 10 8 0 22 -5 30 -10z m130 0 c11
-7 7 -10 -17 -10 -18 0 -33 5 -33 10 0 13 30 13 50 0z m1580 -20 c0 -5 -8 -10
-17 -10 -15 0 -16 2 -3 10 19 12 20 12 20 0z m74 -29 c3 -5 -1 -11 -9 -15 -9
-3 -15 0 -15 9 0 16 16 20 24 6z m-4 -80 c0 -11 -4 -23 -10 -26 -6 -4 -10 5
-10 19 0 14 5 26 10 26 6 0 10 -9 10 -19z m-1387 -58 c-2 -18 0 -33 5 -33 6 0
12 -7 16 -15 3 -9 0 -15 -9 -15 -16 0 -41 103 -29 122 11 18 23 -21 17 -59z
m2277 63 c0 -3 -4 -8 -10 -11 -5 -3 -10 -1 -10 4 0 6 5 11 10 11 6 0 10 -2 10
-4z m230 -51 c0 -7 7 -18 15 -23 20 -10 12 -33 -18 -51 -12 -8 -19 -10 -15 -6
4 4 2 18 -3 32 -10 27 -4 63 12 63 5 0 9 -7 9 -15z m-50 -63 c0 -7 -4 -10 -10
-7 -5 3 -10 16 -10 28 0 18 2 19 10 7 5 -8 10 -21 10 -28z m597 12 c-3 -3 -12
-4 -19 -1 -8 3 -5 6 6 6 11 1 17 -2 13 -5z m-534 -63 c12 -12 5 -43 -10 -49
-7 -2 -13 5 -13 15 -1 17 -1 17 -11 0 -13 -23 10 -48 38 -41 16 4 22 0 27 -21
5 -21 11 -25 27 -20 33 11 109 -4 109 -21 0 -8 -5 -14 -11 -14 -5 0 -7 -5 -3
-12 4 -6 3 -8 -4 -4 -6 3 -14 1 -18 -5 -4 -7 -9 -7 -13 -1 -3 5 -21 13 -38 17
-27 5 -32 4 -27 -8 3 -8 15 -15 27 -16 46 -1 57 -5 57 -19 0 -11 -9 -13 -40
-8 -36 6 -40 4 -40 -15 0 -11 6 -27 14 -35 8 -7 13 -21 12 -31 -3 -19 -26 -31
-26 -13 0 7 -9 19 -19 28 -10 10 -33 44 -51 77 -17 33 -42 70 -56 83 -27 25
-33 42 -8 21 13 -11 54 -21 54 -13 0 15 -14 32 -25 28 -7 -3 -15 2 -18 10 -4
9 -2 16 4 16 6 0 6 8 -1 21 -17 31 -5 50 26 45 15 -3 31 -9 37 -15z m537 -1
c0 -5 -7 -10 -15 -10 -8 0 -15 5 -15 10 0 6 7 10 15 10 8 0 15 -4 15 -10z
m-3022 -23 c13 5 14 3 5 -7 -14 -15 -33 -5 -32 18 1 16 2 16 6 0 3 -11 10 -15
21 -11z m6487 -48 c21 -40 16 -118 -8 -133 -22 -14 -32 0 -41 57 -7 41 8 107
25 107 4 0 16 -14 24 -31z m-6455 -5 c0 -8 -5 -14 -11 -14 -9 0 -10 -24 -6
-82 6 -89 -5 -52 -18 59 -7 59 -6 61 14 56 12 -3 21 -12 21 -19z m3045 -34 c7
0 15 6 18 13 2 6 4 -1 4 -16 0 -28 -43 -85 -60 -79 -4 1 -10 -5 -13 -13 -4 -8
-12 -15 -19 -15 -7 0 -15 -3 -17 -7 -4 -11 -87 -53 -104 -53 -8 0 -14 5 -14
11 0 7 -11 8 -30 4 -20 -4 -34 -2 -42 7 -19 19 -20 38 -5 44 9 3 12 14 10 29
-4 17 1 25 16 30 25 8 91 -13 109 -34 10 -13 12 -13 12 2 0 9 8 21 18 26 13 8
14 10 2 11 -25 1 11 20 38 20 37 0 25 17 -18 24 -37 6 -56 25 -27 27 38 2 58
6 64 13 4 4 16 -4 26 -18 10 -15 25 -26 32 -26z m-2965 0 c6 -12 8 -36 4 -57
-6 -33 -8 -35 -20 -18 -16 21 -19 95 -4 95 5 0 14 -9 20 -20z m2818 -22 c19
-19 14 -26 -13 -20 -14 2 -25 11 -25 18 0 17 22 18 38 2z m5181 -59 c-16 -6
-35 -6 -50 0 -20 8 -16 10 26 10 43 -1 46 -2 24 -10z m-8199 -83 c4 -21 4 -36
-1 -36 -5 0 -9 9 -9 19 0 11 -4 22 -10 26 -5 3 -7 12 -3 21 7 20 13 13 23 -30z
m7118 -47 c-26 -17 -40 -11 -28 12 9 16 14 18 26 8 12 -10 12 -14 2 -20z
m1386 20 c-14 -24 -97 -49 -160 -49 -92 0 -83 29 9 31 23 0 65 7 92 14 66 17
67 17 59 4z m-8484 -80 c0 -10 5 -19 10 -19 6 0 10 5 10 12 0 8 7 5 18 -6 16
-16 16 -18 -7 -37 -40 -33 -57 -25 -56 24 2 56 3 59 15 52 6 -3 10 -15 10 -26z
m7054 -5 c4 -10 1 -14 -6 -12 -15 5 -23 28 -10 28 5 0 13 -7 16 -16z m-84 -28
c0 -28 -39 -61 -53 -47 -10 10 28 71 44 71 5 0 9 -11 9 -24z m145 -21 c0 -5
-10 -11 -22 -13 -16 -2 -23 2 -23 13 0 11 7 15 23 13 12 -2 22 -7 22 -13z
m875 -5 c0 -5 -16 -10 -35 -10 -19 0 -35 5 -35 10 0 6 16 10 35 10 19 0 35 -4
35 -10z m-9683 -54 c16 -19 23 -39 23 -70 0 -40 -3 -44 -27 -49 -50 -9 -193
57 -193 90 0 9 12 28 28 40 23 20 36 23 86 20 50 -3 63 -8 83 -31z m9543 4 c0
-5 -6 -10 -14 -10 -8 0 -18 5 -21 10 -3 6 3 10 14 10 12 0 21 -4 21 -10z
m-745 -21 c-4 -5 -13 -9 -22 -9 -13 0 -13 3 -3 15 13 15 35 11 25 -6z m-734
-114 c-1 -15 -24 -12 -29 3 -3 9 2 13 12 10 10 -1 17 -7 17 -13z m769 -96
c167 -16 200 -20 200 -28 0 -3 -30 -24 -66 -46 -36 -22 -93 -64 -126 -92 -67
-59 -98 -66 -165 -38 -19 8 -43 15 -53 15 -31 0 -40 25 -43 109 -2 97 3 102
83 95 30 -2 107 -9 170 -15z m347 -165 c6 -54 14 -169 18 -254 4 -85 11 -177
16 -204 5 -27 9 -115 9 -196 0 -144 0 -148 23 -154 l22 -7 -23 -10 c-40 -16
-127 -22 -149 -11 -28 15 -37 106 -15 140 15 23 17 79 9 213 -2 44 -9 64 -30
89 -15 17 -27 38 -27 45 0 8 -10 17 -21 20 -12 4 -41 26 -65 48 -41 39 -44 45
-44 94 0 43 -4 56 -25 76 l-26 23 48 40 c44 37 198 133 233 147 29 11 35 -1
47 -99z m-1190 -280 c-9 -9 -28 6 -21 18 4 6 10 6 17 -1 6 -6 8 -13 4 -17z
m-7612 -44 c-3 -5 -10 -10 -16 -10 -5 0 -9 5 -9 10 0 6 7 10 16 10 8 0 12 -4
9 -10z m8675 -309 c0 -5 -7 -14 -15 -21 -16 -14 -18 -10 -9 14 6 17 24 22 24
7z m-1060 -21 c12 -8 12 -10 -5 -10 -11 0 -27 5 -35 10 -12 8 -12 10 5 10 11
0 27 -5 35 -10z m91 -25 c25 -3 51 -17 115 -59 16 -11 47 -31 69 -45 80 -51
214 -154 219 -168 5 -13 -44 21 -94 64 -42 36 -80 64 -130 93 -76 46 -208 110
-225 110 -7 0 -17 5 -21 12 -5 8 0 9 17 4 13 -4 36 -9 50 -11z m1909 -526 c6
-11 10 -47 9 -81 -2 -53 0 -62 21 -78 24 -18 24 -19 6 -39 -20 -22 -22 -83
-10 -353 2 -53 0 -99 -5 -102 -13 -8 -26 149 -35 415 -2 59 -7 113 -12 120 -9
15 -15 119 -7 132 8 13 22 7 33 -14z m-2433 -101 c-3 -8 -6 -5 -6 6 -1 11 2
17 5 13 3 -3 4 -12 1 -19z m360 -30 c-3 -7 -5 -2 -5 12 0 14 2 19 5 13 2 -7 2
-19 0 -25z m1110 20 c9 -12 44 -194 47 -243 1 -19 -5 -20 -134 -20 l-135 0 -6
45 c-4 25 -14 72 -23 105 -10 40 -12 63 -5 70 11 11 179 53 220 54 15 1 31 -5
36 -11z m-1264 -38 c8 0 8 -3 0 -11 -13 -13 -43 -5 -43 12 0 6 7 8 16 5 9 -3
21 -6 27 -6z m391 -26 c9 -3 16 -10 16 -14 0 -12 -33 -5 -38 8 -4 14 0 15 22
6z m-81 -79 c13 -8 43 -16 68 -18 25 -2 54 -9 65 -16 15 -9 6 -10 -46 -6 -36
3 -87 7 -115 9 -27 2 -51 8 -53 14 -2 6 -10 8 -18 5 -8 -3 -14 0 -14 5 0 22
83 27 113 7z m-7413 -17 c0 -13 -24 -47 -60 -84 -56 -58 -60 -66 -60 -109 0
-33 4 -45 13 -42 6 2 27 -2 45 -9 18 -7 39 -13 45 -11 7 1 11 -3 10 -10 -2
-10 27 -26 50 -28 21 -1 117 -93 132 -127 10 -20 24 -39 31 -42 16 -6 19 -36
4 -36 -5 0 -10 -7 -10 -15 0 -8 6 -15 14 -15 20 0 28 -24 37 -120 5 -47 12
-104 15 -128 4 -31 2 -48 -9 -60 -8 -9 -22 -32 -31 -50 -9 -18 -21 -30 -25
-27 -5 3 -7 -3 -4 -14 3 -13 -2 -20 -21 -25 -14 -3 -26 -12 -26 -20 0 -17 -30
-51 -52 -59 -10 -3 -18 -13 -18 -21 0 -7 -6 -16 -14 -19 -7 -3 -17 -18 -21
-34 -3 -15 -12 -31 -18 -35 -8 -5 -3 -16 14 -35 38 -40 59 -114 59 -204 0 -56
4 -80 15 -89 22 -18 18 -48 -10 -82 -20 -23 -23 -33 -15 -49 6 -10 15 -19 20
-19 20 0 20 -40 0 -74 -19 -32 -20 -39 -9 -71 11 -28 11 -40 1 -55 -10 -16 -9
-28 3 -62 21 -60 19 -74 -14 -97 -29 -21 -32 -30 -56 -183 -3 -20 -1 -55 4
-79 8 -35 6 -50 -10 -85 -23 -51 -24 -99 -4 -138 16 -31 20 -76 7 -76 -17 0
-22 14 -9 28 11 13 9 14 -11 1 -20 -12 -25 -12 -36 3 -11 15 -13 15 -24 -2 -6
-11 -8 -22 -3 -25 5 -3 11 0 13 6 2 7 9 5 17 -5 12 -14 10 -16 -18 -16 -32 0
-71 -15 -82 -32 -3 -5 -40 -13 -83 -17 -74 -7 -76 -6 -76 15 0 14 -8 24 -22
28 -37 9 -44 7 -57 -17 -11 -21 -11 -21 -6 6 5 25 4 27 -14 17 -22 -11 -36 1
-27 25 3 8 2 15 -2 15 -11 0 -45 -108 -37 -119 3 -5 1 -12 -4 -15 -12 -8 -20
176 -31 694 -5 239 -12 485 -16 545 -6 100 -5 113 12 129 27 27 45 66 50 106
3 19 12 45 20 59 13 19 14 25 3 32 -8 4 -14 16 -14 25 0 29 -31 41 -54 20 -19
-18 -21 -18 -56 4 -19 12 -35 26 -35 31 0 18 -3 24 -21 48 -11 13 -19 37 -19
52 0 16 -4 29 -10 29 -5 0 -10 -5 -10 -11 0 -5 -4 -7 -10 -4 -5 3 -10 17 -10
31 0 14 -7 27 -15 30 -8 4 -15 12 -15 19 0 17 -28 27 -36 13 -4 -6 3 -20 16
-30 l22 -18 -29 0 c-38 0 -41 3 -35 40 3 21 10 30 23 30 14 0 21 9 26 31 3 17
12 33 20 36 20 8 86 108 113 171 12 28 26 52 31 52 4 0 10 8 13 18 9 27 149
172 166 172 26 0 94 27 98 39 2 6 10 11 18 11 19 0 51 66 59 123 10 63 43 102
103 121 65 19 72 19 72 -6z m9220 -128 c0 -5 -5 -10 -11 -10 -5 0 -7 5 -4 10
3 6 8 10 11 10 2 0 4 -4 4 -10z m-80 -24 c0 -3 -4 -8 -10 -11 -5 -3 -10 -1
-10 4 0 6 5 11 10 11 6 0 10 -2 10 -4z m-702 -20 c2 -3 11 -40 18 -83 7 -43
23 -121 34 -173 12 -52 25 -115 30 -140 23 -136 32 -201 26 -207 -7 -7 -375
-40 -382 -34 -8 9 8 166 26 256 10 50 22 138 25 197 l6 108 -35 36 c-20 20
-33 41 -29 47 6 10 270 3 281 -7z m572 -226 c4 -28 0 -40 -14 -40 -19 0 -25
30 -12 52 11 19 23 13 26 -12z m-587 -457 c18 -11 4 -23 -27 -23 -19 0 -37 -4
-40 -9 -3 -4 4 -37 17 -71 21 -61 21 -63 3 -74 -54 -32 -61 -43 -61 -93 0 -28
-7 -59 -15 -72 -15 -22 -19 -23 -98 -16 -67 6 -82 10 -82 24 0 60 32 317 41
326 19 19 232 26 262 8z m155 -78 c38 -206 50 -310 37 -323 -10 -11 -33 -11
-134 1 -68 9 -124 17 -127 19 -2 3 3 20 13 38 13 26 14 39 5 62 -7 19 -7 30 0
34 22 14 58 115 56 156 -3 35 1 44 20 54 13 6 29 17 35 23 7 7 28 11 47 9 35
-3 35 -3 48 -73z m-9261 59 c-3 -3 -12 -4 -19 -1 -8 3 -5 6 6 6 11 1 17 -2 13
-5z m8184 -1007 c40 -12 47 -21 28 -32 -17 -11 -71 3 -114 31 l-40 25 44 -6
c24 -3 61 -11 82 -18z m1130 -123 c-18 -8 -36 -13 -39 -10 -6 7 37 25 58 25 8
-1 0 -7 -19 -15z m-61 -24 c-8 -5 -19 -10 -25 -10 -5 0 -3 5 5 10 8 5 20 10
25 10 6 0 3 -5 -5 -10z m-94 -39 c-3 -5 -16 -11 -28 -14 -13 -3 -59 -19 -103
-36 -84 -32 -125 -42 -65 -14 68 30 175 72 188 72 7 1 11 -3 8 -8z m-400 -73
c13 -26 24 -52 24 -58 0 -7 18 -42 40 -80 47 -80 50 -100 14 -71 -15 12 -35
21 -45 21 -11 0 -19 6 -19 13 0 14 -59 112 -84 140 -20 21 -20 28 -1 74 13 31
17 34 31 22 8 -7 26 -34 40 -61z m-641 30 c14 -6 25 -17 25 -25 0 -7 11 -13
24 -13 30 0 42 -16 26 -35 -7 -9 -10 -28 -7 -45 8 -37 0 -60 -21 -60 -13 0
-13 -2 1 -18 10 -10 17 -26 17 -35 0 -9 5 -17 10 -17 17 0 11 -25 -10 -40 -14
-10 -17 -17 -8 -27 7 -9 7 -13 -1 -13 -6 0 -11 -7 -11 -15 0 -8 -4 -15 -10
-15 -5 0 -11 -10 -11 -22 -1 -17 -2 -19 -6 -5 -2 9 -9 17 -15 17 -6 0 -17 -8
-24 -17 -12 -16 -13 -15 -14 15 0 28 -3 32 -25 32 -18 0 -28 7 -35 24 -5 13
-14 27 -20 31 -7 4 -9 23 -4 52 4 27 3 48 -3 52 -12 7 -44 112 -37 122 2 4 18
11 36 14 24 6 35 3 45 -11 13 -17 13 -17 13 0 0 11 -8 25 -17 32 -17 12 -16
13 4 14 12 0 25 5 28 10 8 13 18 13 50 -2z m791 -53 c-11 -8 -29 -15 -40 -15
-19 1 -19 2 4 15 35 20 62 19 36 0z m1094 -154 c0 -5 -7 -12 -16 -15 -14 -5
-15 -4 -4 9 14 17 20 19 20 6z m-9326 -277 c9 -24 7 -44 -4 -44 -5 0 -10 11
-10 24 0 13 -6 27 -12 29 -8 4 -7 6 3 6 9 1 20 -6 23 -15z m-69 -4 c3 -5 -1
-10 -9 -10 -9 0 -16 5 -16 10 0 6 4 10 9 10 6 0 13 -4 16 -10z m8165 -330 c0
-5 -14 -10 -31 -10 -17 0 -28 4 -24 10 3 6 17 10 31 10 13 0 24 -4 24 -10z"/>
<path d="M4142 9829 c-1 -14 -7 -41 -13 -58 -8 -24 -8 -36 -1 -43 17 -17 24
10 19 73 -2 30 -4 42 -5 28z"/>
<path d="M8596 8345 c4 -9 11 -14 16 -13 15 5 11 23 -6 26 -11 2 -14 -2 -10
-13z"/>
<path d="M8660 8185 c0 -11 -5 -15 -15 -12 -8 4 -17 2 -20 -3 -3 -5 4 -11 15
-15 23 -7 27 -45 5 -45 -8 0 -15 -4 -15 -10 0 -5 6 -10 14 -10 16 0 49 64 44
87 -4 22 -28 29 -28 8z"/>
<path d="M8560 8180 l-35 -7 32 -2 c17 0 35 4 38 9 3 6 5 9 3 9 -2 -1 -19 -5
-38 -9z"/>
<path d="M8615 8070 c-3 -5 0 -13 9 -16 21 -8 61 -1 61 11 0 14 -62 19 -70 5z"/>
<path d="M2540 7220 c0 -19 3 -21 12 -12 9 9 9 15 0 24 -9 9 -12 7 -12 -12z"/>
<path d="M2446 7143 c9 -35 13 -43 24 -43 17 0 24 51 9 61 -27 17 -40 10 -33
-18z"/>
<path d="M2220 7025 c-15 -18 -13 -20 18 -29 25 -8 31 14 8 33 -10 9 -16 8
-26 -4z"/>
<path d="M2266 6825 c-20 -31 -16 -40 13 -30 22 7 26 21 12 43 -6 10 -12 7
-25 -13z"/>
<path d="M2533 6684 c-40 -31 -42 -44 -8 -44 15 0 40 -7 56 -16 41 -21 61 -4
57 45 -3 33 -6 36 -38 39 -25 2 -44 -5 -67 -24z"/>
<path d="M2403 6577 c-11 -13 -41 -30 -67 -38 -41 -12 -68 -40 -53 -55 6 -7
83 32 92 46 3 5 16 10 27 10 21 0 47 26 48 48 0 20 -25 14 -47 -11z"/>
<path d="M2603 6518 c2 -7 10 -13 17 -13 7 0 15 6 18 13 2 7 -5 12 -18 12 -13
0 -20 -5 -17 -12z"/>
<path d="M2529 6500 c-9 -5 -42 -10 -73 -11 -31 -1 -56 -5 -56 -9 0 -4 -18
-15 -40 -25 -63 -28 -34 -43 31 -17 28 12 70 22 93 22 29 0 50 7 71 25 26 21
27 24 10 24 -11 0 -27 -4 -36 -9z"/>
<path d="M2542 6434 c-27 -19 -29 -44 -2 -44 13 0 20 -7 20 -20 0 -11 -4 -20
-10 -20 -5 0 -10 -4 -10 -10 0 -17 18 -11 40 12 15 16 17 24 8 29 -7 5 -11 22
-10 39 4 34 -4 37 -36 14z"/>
<path d="M2102 6358 c6 -18 28 -21 28 -4 0 9 -7 16 -16 16 -9 0 -14 -5 -12
-12z"/>
<path d="M2035 6340 c3 -5 8 -10 11 -10 2 0 4 5 4 10 0 6 -5 10 -11 10 -5 0
-7 -4 -4 -10z"/>
<path d="M1800 6206 c0 -13 -6 -29 -14 -35 -34 -28 38 -111 84 -96 22 7 28 34
8 36 -7 1 -20 2 -28 3 -18 1 -26 44 -12 58 6 6 17 6 28 0 11 -5 30 -6 44 -2
l25 7 -27 8 c-15 4 -32 4 -37 0 -6 -3 -11 -1 -11 4 0 6 -6 11 -14 11 -8 0 -16
7 -20 15 -9 23 -26 18 -26 -9z"/>
<path d="M2121 6194 c0 -11 3 -14 6 -6 3 7 2 16 -1 19 -3 4 -6 -2 -5 -13z"/>
<path d="M2222 6179 c-12 -19 -11 -19 7 -10 26 14 36 31 19 31 -7 0 -19 -9
-26 -21z"/>
<path d="M1894 5814 c3 -9 6 -20 6 -25 0 -5 12 -9 28 -9 15 0 22 4 16 8 -6 4
-13 15 -17 25 -3 9 -14 17 -23 17 -11 0 -14 -5 -10 -16z"/>
<path d="M2551 5661 c-8 -5 -3 -11 14 -19 20 -9 25 -9 25 2 0 17 -23 27 -39
17z"/>
<path d="M1908 5632 c-43 -20 -56 -31 -52 -44 6 -21 -29 -42 -62 -35 -13 2
-21 0 -18 -5 3 -4 -8 -20 -25 -34 -23 -19 -31 -34 -31 -59 0 -22 -9 -45 -26
-65 -24 -28 -25 -33 -12 -47 14 -14 20 -11 54 24 45 45 78 127 63 155 -9 16
-7 17 16 8 36 -14 45 -13 45 5 0 16 34 53 84 93 43 33 28 35 -36 4z"/>
<path d="M2216 5651 c5 -6 24 -6 44 -1 l35 8 -44 1 c-28 1 -41 -3 -35 -8z"/>
<path d="M1765 5629 c-4 -6 -22 -8 -46 -4 -51 9 -50 -6 2 -29 39 -17 41 -17
54 0 8 11 15 25 15 32 0 15 -16 16 -25 1z"/>
<path d="M2557 5603 c-12 -12 -7 -22 8 -17 8 4 15 10 15 15 0 11 -14 12 -23 2z"/>
<path d="M2526 5395 c-11 -8 -32 -15 -47 -15 -15 0 -31 -5 -35 -11 -11 -19
131 13 152 34 14 14 -52 6 -70 -8z"/>
<path d="M2560 5330 c0 -17 3 -19 19 -10 32 16 34 30 7 30 -19 0 -26 -5 -26
-20z"/>
<path d="M2340 5330 c-8 -5 -12 -11 -9 -14 3 -3 14 1 25 9 21 16 8 20 -16 5z"/>
<path d="M2490 5331 c0 -12 46 -41 54 -34 8 9 -24 43 -41 43 -7 0 -13 -4 -13
-9z"/>
<path d="M2228 5305 c27 -23 35 -26 42 -14 12 18 2 27 -40 35 l-35 7 33 -28z"/>
<path d="M1685 5310 c-3 -5 -12 -7 -20 -4 -8 3 -28 -4 -44 -15 -16 -12 -34
-21 -40 -21 -6 0 -11 -8 -11 -18 0 -10 -6 -24 -12 -31 -7 -6 -14 -33 -14 -59
-1 -26 -4 -58 -5 -71 -5 -30 20 -41 28 -13 3 13 11 18 19 15 11 -4 14 6 14 45
0 42 4 52 25 66 13 9 31 16 40 16 9 0 15 9 15 21 0 14 12 25 40 37 46 19 49
27 18 36 -32 8 -46 7 -53 -4z"/>
<path d="M1440 5260 c0 -12 35 -31 43 -24 3 3 3 12 0 20 -6 16 -43 19 -43 4z"/>
<path d="M2500 5235 c-10 -12 -10 -15 4 -15 9 0 16 7 16 15 0 8 -2 15 -4 15
-2 0 -9 -7 -16 -15z"/>
<path d="M2397 5205 c3 -8 9 -12 14 -9 12 7 11 11 -5 17 -10 4 -13 1 -9 -8z"/>
<path d="M2535 5210 c-3 -6 1 -13 10 -16 19 -8 30 0 20 15 -8 14 -22 14 -30 1z"/>
<path d="M1427 5163 c-4 -3 -7 -15 -7 -25 0 -19 34 -26 44 -9 3 5 16 7 29 5
12 -2 16 -2 10 2 -7 3 -13 12 -13 20 0 14 -50 20 -63 7z"/>
<path d="M2497 5009 c8 -8 16 -8 30 0 16 9 14 10 -11 11 -22 0 -27 -3 -19 -11z"/>
<path d="M1502 4831 c-6 -3 -14 -19 -17 -34 -5 -20 -3 -27 7 -27 14 0 58 40
58 52 0 9 -37 16 -48 9z"/>
<path d="M1520 4743 c0 -5 5 -15 10 -23 8 -12 10 -11 10 8 0 12 -4 22 -10 22
-5 0 -10 -3 -10 -7z"/>
<path d="M1910 4370 c0 -5 4 -10 9 -10 6 0 13 5 16 10 3 6 -1 10 -9 10 -9 0
-16 -4 -16 -10z"/>
<path d="M4710 6470 c0 -5 5 -10 10 -10 6 0 10 5 10 10 0 6 -4 10 -10 10 -5 0
-10 -4 -10 -10z"/>
<path d="M630 6544 c0 -8 5 -12 10 -9 6 4 8 11 5 16 -9 14 -15 11 -15 -7z"/>
<path d="M733 6283 c-7 -2 -13 -13 -13 -24 0 -10 -5 -19 -11 -19 -5 0 -7 -5
-4 -10 4 -6 13 -7 24 -1 9 5 26 9 36 8 15 -2 21 5 23 26 3 23 0 27 -20 26 -13
0 -29 -3 -35 -6z"/>
<path d="M708 6143 c-24 -6 -23 -18 8 -59 31 -40 37 -41 65 -13 21 21 21 21 2
48 -20 26 -42 33 -75 24z"/>
<path d="M592 6128 c6 -18 28 -21 28 -4 0 9 -7 16 -16 16 -9 0 -14 -5 -12 -12z"/>
<path d="M4220 6570 c-8 -5 -12 -12 -8 -15 9 -9 48 4 48 16 0 12 -21 11 -40
-1z"/>
<path d="M260 6281 c0 -18 18 -21 30 -6 10 13 9 15 -9 15 -11 0 -21 -4 -21 -9z"/>
<path d="M265 6211 c-3 -5 -1 -12 5 -16 5 -3 10 1 10 9 0 18 -6 21 -15 7z"/>
<path d="M4232 6318 c3 -7 25 -15 50 -18 40 -5 44 -3 40 12 -3 14 -15 18 -49
18 -31 0 -43 -4 -41 -12z"/>
<path d="M4206 6281 c-4 -7 -5 -15 -2 -18 9 -9 19 4 14 18 -4 11 -6 11 -12 0z"/>
<path d="M4270 6158 c0 -7 -3 -23 -6 -35 -5 -18 -2 -23 13 -23 16 0 20 7 21
35 1 25 -3 35 -13 35 -8 0 -15 -6 -15 -12z"/>
<path d="M5287 5370 c3 -11 9 -17 15 -14 5 3 4 12 -3 20 -16 19 -18 18 -12 -6z"/>
<path d="M9105 3170 c-3 -5 -1 -10 4 -10 6 0 11 5 11 10 0 6 -2 10 -4 10 -3 0
-8 -4 -11 -10z"/>
<path d="M1712 680 c0 -14 2 -19 5 -12 2 6 2 18 0 25 -3 6 -5 1 -5 -13z"/>
<path d="M1599 647 c-5 -12 -6 -37 0 -37 9 0 48 29 41 30 -22 5 -40 8 -41 7z"/>
<path d="M9092 866 c1 -10 8 -17 13 -17 15 1 12 24 -3 29 -9 3 -13 -2 -10 -12z"/>
<path d="M9140 774 c0 -8 5 -12 10 -9 6 4 8 11 5 16 -9 14 -15 11 -15 -7z"/>
<path d="M10880 8446 c0 -2 7 -6 15 -10 8 -3 15 -1 15 4 0 6 -7 10 -15 10 -8
0 -15 -2 -15 -4z"/>
<path d="M11218 8419 c-10 -5 -18 -19 -18 -29 0 -11 -5 -20 -10 -20 -21 0 31
-69 53 -70 4 0 7 29 7 65 0 67 -3 72 -32 54z"/>
<path d="M11080 8335 c0 -8 -4 -15 -10 -15 -15 0 -50 -42 -50 -62 0 -13 8 -18
25 -18 28 0 33 -21 10 -40 -8 -7 -15 -27 -15 -44 -1 -58 -18 -67 -164 -91 -68
-11 -25 -23 144 -39 91 -9 180 -18 198 -20 l32 -5 0 76 c0 68 -2 74 -17 67
-10 -5 -45 -8 -78 -9 l-60 0 3 30 c4 47 24 129 33 141 6 8 1 17 -15 28 -31 20
-36 20 -36 1z"/>
<path d="M11230 8260 c0 -5 5 -10 10 -10 6 0 10 5 10 10 0 6 -4 10 -10 10 -5
0 -10 -4 -10 -10z"/>
<path d="M9553 8142 c-55 -18 -86 -39 -42 -29 32 8 118 46 104 46 -5 0 -33 -8
-62 -17z"/>
<path d="M10917 7003 c-3 -5 -4 -78 -2 -163 2 -85 4 -226 4 -313 1 -156 1
-158 25 -166 12 -5 87 -12 165 -14 l141 -5 0 128 0 127 -25 -5 c-17 -3 -27 1
-31 12 -8 21 13 46 37 46 18 0 19 10 19 169 0 138 -3 170 -14 174 -28 11 -313
20 -319 10z m249 -354 c8 -14 -21 -43 -35 -35 -8 5 -8 13 -1 27 12 21 25 25
36 8z m-71 -49 c-3 -5 -15 -10 -26 -10 -10 0 -19 5 -19 10 0 6 12 10 26 10 14
0 23 -4 19 -10z"/>
<path d="M11203 6013 c9 -2 25 -2 35 0 9 3 1 5 -18 5 -19 0 -27 -2 -17 -5z"/>
<path d="M10972 5627 c-17 -22 -42 -76 -42 -92 0 -11 7 -15 23 -13 17 2 21 9
19 29 -2 14 4 31 12 39 18 14 21 36 7 44 -5 3 -13 0 -19 -7z"/>
<path d="M10485 5550 c-10 -16 16 -43 29 -30 5 5 18 10 28 10 10 0 18 7 18 15
0 18 -65 22 -75 5z"/>
<path d="M10380 5534 c0 -11 -8 -15 -27 -13 -16 1 -38 -1 -51 -5 -16 -5 -29
-3 -40 7 -35 31 -78 -11 -53 -52 7 -11 11 -10 20 5 6 11 11 13 11 6 0 -9 5
-10 19 -2 11 5 29 10 41 10 34 0 18 -24 -23 -34 -42 -11 -48 -27 -15 -41 15
-7 23 -19 23 -35 0 -22 5 -25 45 -28 25 -2 79 6 120 17 41 11 92 23 113 26 42
7 40 5 27 40 -13 35 -68 57 -120 49 -27 -4 -40 -3 -40 5 0 6 -7 11 -15 11 -17
0 -20 16 -5 25 17 10 11 25 -10 25 -12 0 -20 -7 -20 -16z m33 -91 c9 -9 -13
-34 -24 -27 -14 8 -11 34 4 34 8 0 17 -3 20 -7z"/>
<path d="M11226 4304 c-11 -8 -16 -14 -10 -14 13 0 39 18 34 24 -3 2 -14 -2
-24 -10z"/>
<path d="M11135 4278 c-22 -5 -69 -18 -105 -28 -36 -10 -96 -22 -134 -26 -53
-5 -65 -9 -51 -16 9 -6 38 -8 64 -4 25 3 71 8 101 12 30 4 66 15 80 25 14 9
41 19 60 21 18 2 35 9 38 16 4 13 4 13 -53 0z"/>
<path d="M10740 4200 c0 -5 7 -10 15 -10 8 0 15 5 15 10 0 6 -7 10 -15 10 -8
0 -15 -4 -15 -10z"/>
<path d="M208 2978 c-13 -10 -29 -16 -35 -13 -7 2 -21 -4 -30 -14 -10 -10 -25
-21 -33 -25 -8 -3 1 -3 20 0 41 7 140 52 140 64 0 14 -37 7 -62 -12z"/>
<path d="M0 2875 c0 -8 7 -15 15 -15 8 0 15 7 15 15 0 8 -7 15 -15 15 -8 0
-15 -7 -15 -15z"/>
<path d="M11084 2635 c-4 -9 -3 -30 0 -48 16 -79 17 -98 7 -129 -11 -29 -9
-35 10 -51 20 -16 24 -16 45 -2 13 8 41 15 64 15 l40 0 0 56 c0 52 -1 55 -21
49 -11 -4 -36 -4 -54 -1 -26 5 -36 14 -44 38 -6 17 -11 41 -11 53 0 27 -28 42
-36 20z"/>
<path d="M11010 2491 c0 -15 -32 -22 -46 -10 -15 12 -80 4 -86 -10 -2 -5 -32
-12 -68 -15 -35 -4 -66 -9 -68 -11 -2 -2 6 -8 17 -15 15 -7 56 -9 129 -4 59 4
124 6 145 6 42 -2 43 0 20 39 -16 27 -43 40 -43 20z"/>
<path d="M11035 2160 c3 -5 8 -10 11 -10 2 0 4 5 4 10 0 6 -5 10 -11 10 -5 0
-7 -4 -4 -10z"/>
</g>
</svg>
